<svg xmlns="http://www.w3.org/2000/svg" viewBox="0 0 141 124.7"><defs>
<style>
@keyframes lineGrow {
    from {
        stroke-dasharray: 0 HALF_LENGTH;
        stroke-dashoffset: QUARTER_LENGTH;
    }
    to {
        stroke-dasharray: HALF_LENGTH 0;
        stroke-dashoffset: HALF_LENGTH;
    }
}

.cls-1{
    fill:none;}
    .cls-1,.cls-2,.cls-3{
        stroke:#2bcc69;
        stroke-miterlimit:10;
        stroke-width:2px;
        stroke-dasharray: FULL_LENGHT;
        stroke-dashoffset: FULL_LENGHT;
        animation: double-lines 1s ease-in-out 0s forwards;
}
        .cls-2{
            fill:#fff;
            }.cls-3{
                fill:#1d1d1b;
                }</style></defs><g id="Camada_2" data-name="Camada 2"><g id="Camada_3" data-name="Camada 3"><path class="cls-1" d="M15.11,40.7,35.26,2.12A2.07,2.07,0,0,1,39,2.18L57.41,40.77a2.07,2.07,0,0,1-1.87,3c-3.34,0-35.67.56-38.59,0a2.55,2.55,0,0,1-1.77-1A2.56,2.56,0,0,1,15.11,40.7Z"/><path class="cls-1" d="M85.75,40.7,105.89,2.12a2.08,2.08,0,0,1,3.72.06l18.44,38.59a2.08,2.08,0,0,1-1.87,3H87.59A2.08,2.08,0,0,1,85.75,40.7Z"/><path class="cls-1" d="M57.3,42.77a52.73,52.73,0,0,1,28.43-.31"/><path class="cls-1" d="M128.05,40.77c6.73,17.1,20.94,58.27,3.83,75.06a20.21,20.21,0,0,1-2,1.77c-4.68,3.39-15.32,6.29-59.72,6.1-44.95-.2-54.87-1.18-59.62-4.32a14.3,14.3,0,0,1-2-1.68C-8.61,101.49,7.91,57.91,15,41.1"/><path class="cls-1" d="M21.22,36.4,35.55,9a1.47,1.47,0,0,1,2.64,0L51.32,36.45A1.48,1.48,0,0,1,50,38.57c-2.38,0-25.38.39-27.45,0a1.83,1.83,0,0,1-1.27-.72A1.75,1.75,0,0,1,21.22,36.4Z"/><path class="cls-1" d="M91.82,36.4,106.16,9a1.47,1.47,0,0,1,2.64,0l13.13,27.46a1.48,1.48,0,0,1-1.34,2.12c-2.38,0-25.38.39-27.46,0a1.49,1.49,0,0,1-1.31-2.17Z"/><ellipse class="cls-2" cx="48.02" cy="70.07" rx="5.25" ry="5.08"/><ellipse class="cls-2" cx="95.14" cy="70.07" rx="5.25" ry="5.08"/><circle class="cls-3" cx="71.48" cy="86.65" r="0.53"/><path class="cls-1" d="M54.73,96.16c4.47,2.89,10.5,2.63,14.08-.28a8.12,8.12,0,0,0,2.59-3.6,7.06,7.06,0,0,0,.23-1.19q0-1.16,0-2.46,0-1-.15-2"/><path class="cls-1" d="M88.43,96.05c-4.3,2.89-10.08,2.63-13.52-.28a10.42,10.42,0,0,1-1.85-2.21h0c-.41-.46-1.21-1.58-1.44-5.09,0-.42-.06-1-.05-1.82"/><line class="cls-1" x1="10.88" y1="80.54" x2="42.14" y2="86.38"/><line class="cls-1" x1="10.88" y1="93.79" x2="42.14" y2="93.79"/><line class="cls-1" x1="10.88" y1="105.27" x2="42.14" y2="100.84"/><line class="cls-1" x1="132.38" y1="80.54" x2="101.12" y2="86.38"/><line class="cls-1" x1="132.38" y1="93.79" x2="101.12" y2="93.79"/><line class="cls-1" x1="132.38" y1="105.27" x2="101.12" y2="100.84"/></g></g></svg>