<?xml version="1.0" encoding="UTF-8"?>
<svg xmlns="http://www.w3.org/2000/svg" xmlns:xlink="http://www.w3.org/1999/xlink" viewBox="0 0 100 100" width="100px" height="100px">
<g id="surface3884411">
<path style="fill-rule:nonzero;fill:rgb(17.254902%,79.607844%,41.176471%);fill-opacity:1;stroke-width:1;stroke-linecap:butt;stroke-linejoin:round;stroke:rgb(80.000001%,80.000001%,80.000001%);stroke-opacity:1;stroke-miterlimit:10;" d="M 141.041025 13.763298 C 150.497294 13.763298 158.236699 21.502703 158.236699 30.958972 L 158.236699 141.041025 C 158.236699 150.497294 150.497294 158.236699 141.041025 158.236699 L 30.958972 158.236699 C 21.502703 158.236699 13.763298 150.497294 13.763298 141.041025 L 13.763298 30.958972 C 13.763298 21.502703 21.502703 13.763298 30.958972 13.763298 Z M 20.637512 30.958972 L 20.637512 141.041025 C 20.637512 146.779675 25.220322 151.362485 30.958972 151.362485 L 141.041025 151.362485 C 146.779675 151.362485 151.362485 146.779675 151.362485 141.041025 L 151.362485 30.958972 C 151.362485 25.220322 146.779675 20.637512 141.041025 20.637512 L 30.958972 20.637512 C 25.220322 20.637512 20.637512 25.220322 20.637512 30.958972 Z M 61.876036 49.587619 C 61.876036 49.641693 61.876036 49.702527 61.882796 49.763361 C 61.882796 56.400999 55.981922 61.882796 48.161405 61.882796 C 47.803162 61.876036 47.451678 61.815203 47.113713 61.700294 C 47.106953 61.693535 47.100194 61.693535 47.100194 61.693535 C 40.009682 61.193347 34.440015 56.19146 34.440015 49.763361 C 34.440015 46.383708 35.981136 43.233871 38.488839 41.118209 C 41.0033 39.009305 44.389713 37.880501 48.161405 37.880501 C 55.698031 37.880501 61.524553 43.044611 61.876036 49.587619 Z M 42.868869 46.316115 C 41.767102 47.248899 41.239876 48.330388 41.239876 49.763361 C 41.239876 52.642825 43.396095 55.082934 48.161405 55.082934 C 53.183569 55.082934 55.001822 52.798289 55.049138 49.851232 C 54.839599 46.816303 52.946994 44.680363 48.161405 44.680363 C 45.734814 44.680363 43.963876 45.39009 42.868869 46.316115 Z M 58.482865 65.357079 C 60.38223 65.357079 61.916592 66.898201 61.923352 68.797565 L 61.923352 134.160052 C 61.916592 136.059417 60.38223 137.600538 58.482865 137.600538 L 37.839945 137.600538 C 35.94058 137.600538 34.399459 136.059417 34.399459 134.160052 L 34.399459 68.797565 C 34.399459 66.898201 35.94058 65.357079 37.839945 65.357079 Z M 89.440485 65.357079 C 91.33985 65.357079 92.880972 66.898201 92.880972 68.797565 L 92.880972 70.257575 C 96.699979 67.78367 102.202054 65.357079 109.434511 65.357079 C 117.04549 65.357079 124.237391 68.040523 129.40826 73.502042 C 134.579129 78.963561 137.600538 87.034172 137.600538 97.220446 L 137.600538 134.160052 C 137.600538 136.059417 136.059417 137.600538 134.160052 137.600538 L 113.517132 137.600538 C 111.617767 137.600538 110.083405 136.059417 110.076645 134.160052 L 110.076645 99.761945 C 110.076645 96.895999 109.319603 94.15848 107.960983 92.333468 C 106.602362 90.515215 104.811146 89.352614 101.417975 89.29178 C 98.132952 89.230947 96.40257 90.346232 95.030431 92.205041 C 93.658292 94.06385 92.880972 96.902759 92.880972 99.761945 L 92.880972 134.160052 C 92.880972 136.059417 91.33985 137.600538 89.440485 137.600538 L 68.797565 137.600538 C 66.898201 137.600538 65.357079 136.059417 65.357079 134.160052 L 65.357079 68.797565 C 65.357079 66.898201 66.898201 65.357079 68.797565 65.357079 Z M 41.280432 130.719565 L 55.042378 130.719565 L 55.042378 72.238052 L 41.280432 72.238052 Z M 72.238052 130.719565 L 85.999999 130.719565 L 85.999999 99.761945 C 85.999999 95.733399 86.973339 91.542629 89.49456 88.12918 C 92.009021 84.71573 96.30794 82.316177 101.539642 82.410807 C 106.751067 82.498678 110.975633 84.850917 113.483336 88.22381 C 115.997797 91.596704 116.957619 95.746917 116.957619 99.761945 L 116.957619 130.719565 L 130.719565 130.719565 L 130.719565 97.220446 C 130.719565 88.365756 128.198344 82.221547 124.419892 78.233556 C 120.64144 74.245566 115.463812 72.238052 109.434511 72.238052 C 97.592208 72.238052 92.184763 79.680048 92.184763 79.680048 C 91.299294 80.856167 89.751413 81.336078 88.352237 80.869685 C 86.946301 80.403293 85.999999 79.085229 85.999999 77.604941 L 85.999999 72.238052 L 72.238052 72.238052 Z M 72.238052 130.719565 " transform="matrix(0.577907,0,0,0.577907,0.3,0.3)"/>
<path style=" stroke:none;fill-rule:nonzero;fill:rgb(17.254902%,79.607844%,41.176471%);fill-opacity:1;" d="M 18.191406 8.253906 C 12.726562 8.253906 8.253906 12.726562 8.253906 18.191406 L 8.253906 81.808594 C 8.253906 87.273438 12.726562 91.746094 18.191406 91.746094 L 81.808594 91.746094 C 87.273438 91.746094 91.746094 87.273438 91.746094 81.808594 L 91.746094 18.191406 C 91.746094 12.726562 87.273438 8.253906 81.808594 8.253906 Z M 18.191406 12.226562 L 81.808594 12.226562 C 85.125 12.226562 87.773438 14.875 87.773438 18.191406 L 87.773438 81.808594 C 87.773438 85.125 85.125 87.773438 81.808594 87.773438 L 18.191406 87.773438 C 14.875 87.773438 12.226562 85.125 12.226562 81.808594 L 12.226562 18.191406 C 12.226562 14.875 14.875 12.226562 18.191406 12.226562 Z M 28.132812 22.191406 C 25.953125 22.191406 23.996094 22.84375 22.542969 24.0625 C 21.09375 25.285156 20.203125 27.105469 20.203125 29.058594 C 20.203125 32.773438 23.421875 35.664062 27.519531 35.953125 C 27.519531 35.953125 27.523438 35.953125 27.527344 35.957031 C 27.722656 36.023438 27.925781 36.058594 28.132812 36.0625 C 32.652344 36.0625 36.0625 32.894531 36.0625 29.058594 C 36.058594 29.023438 36.058594 28.988281 36.058594 28.957031 C 35.855469 25.175781 32.488281 22.191406 28.132812 22.191406 Z M 28.132812 26.121094 C 30.898438 26.121094 31.992188 27.355469 32.113281 29.109375 C 32.085938 30.8125 31.035156 32.132812 28.132812 32.132812 C 25.378906 32.132812 24.132812 30.722656 24.132812 29.058594 C 24.132812 28.230469 24.4375 27.605469 25.074219 27.066406 C 25.707031 26.53125 26.730469 26.121094 28.132812 26.121094 Z M 22.167969 38.070312 C 21.070312 38.070312 20.179688 38.960938 20.179688 40.058594 L 20.179688 77.832031 C 20.179688 78.929688 21.070312 79.820312 22.167969 79.820312 L 34.097656 79.820312 C 35.195312 79.820312 36.082031 78.929688 36.085938 77.832031 L 36.085938 40.058594 C 36.082031 38.960938 35.195312 38.070312 34.097656 38.070312 Z M 40.058594 38.070312 C 38.960938 38.070312 38.070312 38.960938 38.070312 40.058594 L 38.070312 77.832031 C 38.070312 78.929688 38.960938 79.820312 40.058594 79.820312 L 51.988281 79.820312 C 53.085938 79.820312 53.976562 78.929688 53.976562 77.832031 L 53.976562 57.953125 C 53.976562 56.300781 54.425781 54.660156 55.21875 53.585938 C 56.011719 52.511719 57.011719 51.867188 58.910156 51.902344 C 60.871094 51.9375 61.90625 52.609375 62.691406 53.660156 C 63.476562 54.714844 63.914062 56.296875 63.914062 57.953125 L 63.914062 77.832031 C 63.917969 78.929688 64.804688 79.820312 65.902344 79.820312 L 77.832031 79.820312 C 78.929688 79.820312 79.820312 78.929688 79.820312 77.832031 L 79.820312 56.484375 C 79.820312 50.597656 78.074219 45.933594 75.085938 42.777344 C 72.097656 39.621094 67.941406 38.070312 63.542969 38.070312 C 59.363281 38.070312 56.183594 39.472656 53.976562 40.902344 L 53.976562 40.058594 C 53.976562 38.960938 53.085938 38.070312 51.988281 38.070312 Z M 24.15625 42.046875 L 32.109375 42.046875 L 32.109375 75.84375 L 24.15625 75.84375 Z M 42.046875 42.046875 L 50 42.046875 L 50 45.148438 C 50 46.003906 50.546875 46.765625 51.359375 47.035156 C 52.167969 47.304688 53.0625 47.027344 53.574219 46.347656 C 53.574219 46.347656 56.699219 42.046875 63.542969 42.046875 C 67.027344 42.046875 70.019531 43.207031 72.203125 45.511719 C 74.386719 47.816406 75.84375 51.367188 75.84375 56.484375 L 75.84375 75.84375 L 67.890625 75.84375 L 67.890625 57.953125 C 67.890625 55.632812 67.335938 53.234375 65.882812 51.285156 C 64.433594 49.335938 61.992188 47.976562 58.980469 47.925781 C 55.957031 47.871094 53.472656 49.257812 52.019531 51.230469 C 50.5625 53.203125 50 55.625 50 57.953125 L 50 75.84375 L 42.046875 75.84375 Z M 42.046875 42.046875 "/>
</g>
</svg>
