<svg version="1.1" id="Camada_1" xmlns="http://www.w3.org/2000/svg" x="0" y="0" viewBox="0 0 1000 1000" style="enable-background:new 0 0 1000 1000" xml:space="preserve"><style>.st0{stroke:#000;stroke-miterlimit:10}</style><path class="st0" d="m638.5 478.5-45.9 45.9L483 634 349.8 767.2 235.3 881.7c-18.6 18.6-37.7 36.8-55.9 55.9-.2.3-.5.5-.8.8 17.1 7.1 34.1 14.1 51.2 21.2V77.3c0-11.9.1-23.9 0-35.8V40c0-15.7-13.8-30.7-30-30-16.3.7-30 13.2-30 30v882.3c0 11.9-.2 23.9 0 35.8v1.5c0 12 7.5 22.8 18.4 27.4 11 4.6 24.2 2.4 32.8-6.2l45.9-45.9 109.6-109.6 133.2-133.2 114.5-114.5c18.6-18.6 37.6-36.9 55.9-55.9l.8-.8c11.1-11.1 11.9-31.5 0-42.4-11.9-11-30.5-11.8-42.4 0z"/><path class="st0" d="m360.5 519.7 45.9-45.9L516 364.2 649.2 231l114.5-114.5c18.6-18.6 37.7-36.8 55.9-55.9.2-.3.5-.5.8-.8-17.1-7.1-34.1-14.1-51.2-21.2-.6 8.3-.1 16.9-.1 25.2v858c0 12-.1 24 0 36v1.5c0 15.7 13.8 30.7 30 30 16.3-.7 30-13.2 30-30V76.4c0-11.8-.2-23.6 0-35.3 0-.9 0-1.7.1-2.6.9-11.8-8.3-23.1-18.4-27.4-11-4.6-24.2-2.4-32.8 6.2l-45.9 45.9-109.6 109.6L489.3 306 374.8 420.5c-18.6 18.6-37.6 36.9-55.9 55.9l-.8.8c-11.1 11.1-11.9 31.5 0 42.4 12 11.1 30.6 12 42.4.1z"/><circle class="st0" cx="500" cy="500" r="19.4"/><path class="st0" d="M504.4 500c0 1.5-.3 1.5.1.1-.2.9-.4 1.7-.7 2.6 1.1-2.8-.1.1-.6.5-1.7 1.3 1.4-1.6-.1 0-1.6 1.6 1.8-1.4 0 .1-.2.2-2.6 1.5-1.1.8 1.6-.8-1.9.5-2 .5 1.4-.4 1.4-.1-.1-.1s-1.5-.3-.1.1c-.9-.2-1.7-.4-2.6-.7 2.2.8.1.3 0-.2-1.3-.8-1.4-1-.6-.4.7.5.7.5.1-.1-1.7-1.2 1.2 1.6-.1 0-.2-.2-1.5-2.6-.8-1.1s-.3-1-.4-1.3c-.5-2.2-.1 3.4-.1-.7 0-1.5.3-1.5-.1-.1.2-.9.4-1.7.7-2.6-.8 2.2-.3.1.2 0 1.9-.1-.6-1.8 0-.1l.9-.9c-1.2.8-1.4.9-.5.3.2-.2 2.6-1.5 1.1-.8s1-.3 1.3-.4c2.1-.6-2.2 0 0 0 .9 0 3.5.6.8-.1.9.2 1.7.4 2.6.7-2.2-.8-.1-.3 0 .2.1 1.9 1.8-.6.1 0 .3-.1 1.6 1.8.2-.1.2.3 2 3.4 1.1 1.6-.7-1.5.3 1 .4 1.3.8 2.5.2-3.4.3.9.3 7.8 6.7 15.4 15 15 7.9-.3 15.3-6.6 15-15-.7-18.7-15.2-34.4-34.4-34.4-18.7 0-34.4 15.7-34.4 34.4 0 18.6 15.7 34.5 34.4 34.4 19.2-.1 33.8-15.7 34.4-34.4.3-7.9-7.1-15.4-15-15-8.4.4-14.7 6.6-15 15z"/></svg>